<svg width="76" height="76" viewBox="0 0 76 76" fill="none" xmlns="http://www.w3.org/2000/svg">
<g id="ei:play">
<path id="Vector" d="M38 63.8399C23.712 63.8399 12.16 52.2879 12.16 37.9999C12.16 23.7119 23.712 12.1599 38 12.1599C52.288 12.1599 63.84 23.7119 63.84 37.9999C63.84 52.2879 52.288 63.8399 38 63.8399ZM38 15.1999C25.384 15.1999 15.2 25.3839 15.2 37.9999C15.2 50.6159 25.384 60.7999 38 60.7999C50.616 60.7999 60.8 50.6159 60.8 37.9999C60.8 25.3839 50.616 15.1999 38 15.1999Z" fill="#C9BCEF"/>
<path id="Vector_2" d="M30.4 51.2239V24.7759L53.2 37.9999L30.4 51.2239ZM33.44 29.9439V45.9039L47.12 37.8479L33.44 29.9439Z" fill="#C9BCEF"/>
</g>
</svg>
