<svg width="17" height="17" viewBox="0 0 17 17" fill="none" xmlns="http://www.w3.org/2000/svg">
<g id="cib:instagram" clip-path="url(#clip0_10_10)">
<path id="Vector" d="M8.50004 0C6.18963 0 5.90169 0.0111563 4.99751 0.0494063C4.0896 0.0940313 3.47547 0.234812 2.9336 0.445188C2.36647 0.659292 1.85286 0.994508 1.42857 1.42747C0.994399 1.85077 0.658997 2.36466 0.446286 2.9325C0.235911 3.47438 0.0951299 4.0885 0.0505049 4.99641C0.00959864 5.90112 0.00109863 6.18853 0.00109863 8.49894C0.00109863 10.8093 0.0122549 11.0973 0.0505049 12.0015C0.0951299 12.9067 0.235911 13.5235 0.446286 14.0654C0.660391 14.6325 0.995607 15.1461 1.42857 15.5704C1.85187 16.0046 2.36576 16.34 2.9336 16.5527C3.47547 16.7604 4.09226 16.9038 4.99751 16.9485C5.90222 16.9894 6.18963 16.9979 8.50004 16.9979C10.8104 16.9979 11.0984 16.9867 12.0026 16.9485C12.9078 16.9038 13.5246 16.7599 14.0665 16.5527C14.6336 16.3386 15.1472 16.0034 15.5715 15.5704C16.0062 15.1476 16.3417 14.6335 16.5538 14.0654C16.7615 13.5235 16.9049 12.9067 16.9496 12.0015C16.9905 11.0968 16.999 10.8093 16.999 8.49894C16.999 6.18853 16.9878 5.90059 16.9496 4.99641C16.9049 4.09116 16.761 3.47119 16.5538 2.9325C16.3397 2.36537 16.0045 1.85176 15.5715 1.42747C15.1487 0.992741 14.6346 0.657252 14.0665 0.445188C13.5246 0.234812 12.9078 0.0940313 12.0026 0.0494063C11.0978 0.0085 10.8104 0 8.50004 0ZM8.50004 1.53C10.769 1.53 11.0399 1.54116 11.9367 1.57941C12.7638 1.61819 13.2143 1.75631 13.5134 1.87319C13.8832 2.00968 14.2179 2.22692 14.4931 2.50909C14.7748 2.78313 14.9912 3.11703 15.1263 3.48606C15.2432 3.78516 15.3813 4.23566 15.4201 5.06281C15.4583 5.95956 15.4695 6.23103 15.4695 8.49947C15.4695 10.7679 15.4584 11.0394 15.4169 11.9361C15.3723 12.7633 15.2342 13.2138 15.1178 13.5129C14.9569 13.9118 14.7773 14.1908 14.4808 14.4925C14.2047 14.7729 13.8703 14.9891 13.5012 15.1257C13.2058 15.2426 12.749 15.3807 11.9186 15.4195C11.0171 15.4578 10.7515 15.4689 8.47666 15.4689C6.20185 15.4689 5.93676 15.4578 5.03416 15.4163C4.20701 15.3717 3.75066 15.2336 3.45157 15.1172C3.04782 14.9563 2.77104 14.7767 2.4746 14.4803C2.17551 14.1812 1.98532 13.8964 1.83869 13.5007C1.71969 13.2053 1.58369 12.7484 1.5396 11.9181C1.50932 11.0272 1.49497 10.7509 1.49497 8.48672C1.49497 6.22359 1.50932 5.94681 1.5396 5.04475C1.58369 4.21441 1.71969 3.75859 1.83869 3.46216C1.98532 3.05788 2.17604 2.78163 2.4746 2.48253C2.77051 2.18663 3.04782 1.99538 3.45157 1.84556C3.75066 1.72922 4.19585 1.59109 5.02619 1.54966C5.92772 1.51725 6.19335 1.50556 8.46497 1.50556L8.50004 1.53ZM8.50004 4.13684C7.927 4.13663 7.35954 4.24935 6.83008 4.46854C6.30062 4.68774 5.81955 5.00912 5.41435 5.41432C5.00915 5.81951 4.68777 6.30059 4.46858 6.83004C4.24938 7.3595 4.13667 7.92696 4.13688 8.5C4.13667 9.07304 4.24938 9.6405 4.46858 10.17C4.68777 10.6994 5.00915 11.1805 5.41435 11.5857C5.81955 11.9909 6.30062 12.3123 6.83008 12.5315C7.35954 12.7507 7.927 12.8634 8.50004 12.8632C9.07307 12.8634 9.64054 12.7507 10.17 12.5315C10.6994 12.3123 11.1805 11.9909 11.5857 11.5857C11.9909 11.1805 12.3123 10.6994 12.5315 10.17C12.7507 9.6405 12.8634 9.07304 12.8632 8.5C12.8634 7.92696 12.7507 7.3595 12.5315 6.83004C12.3123 6.30059 11.9909 5.81951 11.5857 5.41432C11.1805 5.00912 10.6994 4.68774 10.17 4.46854C9.64054 4.24935 9.07307 4.13663 8.50004 4.13684ZM8.50004 11.3332C6.93391 11.3332 5.66688 10.0661 5.66688 8.5C5.66688 6.93388 6.93391 5.66684 8.50004 5.66684C10.0662 5.66684 11.3332 6.93388 11.3332 8.5C11.3332 10.0661 10.0662 11.3332 8.50004 11.3332ZM14.059 3.96259C14.0588 4.23335 13.951 4.49293 13.7594 4.68428C13.5679 4.87564 13.3082 4.98313 13.0374 4.98313C12.9036 4.98313 12.771 4.95676 12.6473 4.90552C12.5236 4.85429 12.4112 4.7792 12.3166 4.68453C12.2219 4.58986 12.1468 4.47748 12.0956 4.35379C12.0443 4.2301 12.018 4.09753 12.018 3.96366C12.018 3.82978 12.0443 3.69721 12.0956 3.57352C12.1468 3.44983 12.2219 3.33745 12.3166 3.24278C12.4112 3.14812 12.5236 3.07302 12.6473 3.02179C12.771 2.97056 12.9036 2.94419 13.0374 2.94419C13.599 2.94419 14.059 3.40106 14.059 3.96259Z" fill="#C9BCEF"/>
</g>
<defs>
<clipPath id="clip0_10_10">
<rect width="17" height="17" fill="white"/>
</clipPath>
</defs>
</svg>
