<svg width="21" height="21" viewBox="0 0 21 21" fill="none" xmlns="http://www.w3.org/2000/svg">
<g id="icon-park-outline:twitter">
<path id="Vector" d="M2.1875 15.6459C3.03144 16.1127 9.13981 19.6337 13.4837 16.9199C17.8273 14.2061 17.5875 9.5305 17.5875 7.38762C17.9813 6.56337 18.8125 6.14425 18.8125 3.913C17.9961 4.66725 17.1846 4.92362 16.3778 4.683C15.5877 3.47812 14.5005 2.94481 13.1158 3.08394C11.0394 3.29262 10.2799 5.32962 10.5035 7.96556C7.30187 9.58431 4.7915 6.79175 3.49737 4.683C3.06512 6.34375 2.64862 8.33787 3.49737 10.5433C4.0635 12.0142 5.42456 13.2571 7.57969 14.2734C5.39525 15.4569 3.598 15.9149 2.1875 15.6459Z" stroke="#C9BCEF" stroke-width="1.66667" stroke-linejoin="round"/>
</g>
</svg>
