<svg width="120" height="52" viewBox="0 0 120 52" fill="none" xmlns="http://www.w3.org/2000/svg">
<path d="M22.9263 26.5956C22.5579 26.7009 22.2948 26.7535 22.0844 26.5956V27.1218C23.1894 26.9114 24.8205 27.1218 25.6098 26.8061C24.7153 26.4378 24.0313 26.7535 22.9263 26.5956C24.4522 26.3852 26.557 26.2799 27.6093 27.1218C27.7146 27.7533 27.4515 28.0164 27.241 28.3847C25.2415 28.5952 23.0315 28.2794 21.8213 28.7004C21.9265 29.0687 21.6634 29.0687 21.8213 29.4371C21.6108 29.6475 21.716 30.1737 21.5056 30.3842C21.1372 34.1201 20.7163 36.9615 20.1901 40.8027C19.9796 42.1708 19.7165 43.2758 19.7165 44.3808C19.4534 45.3805 19.6113 46.2751 19.2956 47.117C19.2956 47.6431 19.4534 48.1167 19.1377 48.5903C19.3482 49.6953 18.7168 50.695 18.4537 51.6422C17.5065 52.3788 16.0858 51.8 15.0334 51.4843C14.7177 50.695 14.823 49.8005 15.2439 48.9586C15.3492 49.0639 15.4018 48.9586 15.5596 48.9586C15.7175 49.2743 15.928 49.4848 16.1384 49.6953C16.5594 48.9586 16.3489 47.9062 16.7172 47.2222C17.3487 40.9079 18.3484 35.6987 19.2956 29.0161C18.6115 28.753 17.717 29.0687 17.1382 29.2266C14.7177 29.3844 12.613 30.0685 9.98204 30.4894C9.50848 33.1204 9.14014 36.488 9.14014 38.9084C8.82443 38.3296 9.08753 37.4877 9.03491 36.9089C8.92967 37.4351 8.56134 38.1718 8.82443 38.8558C8.40348 39.1715 8.7192 39.9082 8.50872 40.2765C8.29825 40.0134 8.50872 39.5925 8.40348 39.1189C8.19301 39.1189 8.35086 39.5925 8.19301 39.6451C8.50872 40.9079 8.19301 42.276 8.29824 43.5915C8.14039 43.6441 8.03515 43.6967 7.8773 43.6967C7.82468 43.6441 7.82468 43.6441 7.71944 43.6441C6.66706 41.7498 6.82492 39.0137 6.93016 36.6984C6.98278 34.9094 7.19325 32.9625 7.40373 31.2787C4.77279 31.9101 2.40494 32.9625 0.352813 34.1727C-0.489087 33.4887 0.352813 32.2785 1.03686 31.9628V32.068C0.984238 32.068 0.93162 32.1206 0.93162 32.1732C0.93162 32.2259 1.03686 32.1732 1.03686 32.068C1.14209 32.068 1.19471 32.0154 1.24733 31.9628C1.51043 31.9101 1.56304 31.647 1.87876 31.647C1.61566 31.9628 1.14209 32.068 0.93162 32.3837C1.29995 32.2785 1.93138 31.7523 2.29971 31.5944C2.24709 31.3313 1.93138 31.8049 1.98399 31.4366C2.35233 31.4366 2.5628 31.2261 2.87851 31.0682C3.08899 31.2787 2.5628 31.2787 2.51018 31.384C2.45756 31.4366 2.40494 31.4366 2.35233 31.5418C2.35233 31.647 2.5628 31.4892 2.51018 31.384C4.19398 30.9104 5.87778 30.1211 7.56158 29.7528C7.24587 29.4897 7.82468 29.4897 7.40373 29.3844C7.40373 29.2792 7.6142 29.3318 7.66682 29.2266C7.71944 27.8059 8.14039 26.4378 8.19301 24.7014C8.24563 24.7014 8.29824 24.754 8.35086 24.754C8.29824 23.3333 9.03491 21.7021 8.98229 20.1762C9.35062 19.5447 9.14014 18.9659 9.50848 18.3345C9.50848 17.9136 9.56109 17.5452 9.61371 17.2295C10.3504 14.4933 10.7187 11.3362 11.8237 9.12622C12.1394 9.0736 12.2973 8.86313 12.4551 8.70527C13.2444 8.65265 13.6127 9.12622 14.1915 9.28408C14.2968 9.49455 14.2442 9.86288 14.3494 10.0734C14.0863 10.8626 13.5075 11.7045 13.6127 12.7043C12.7708 15.3352 12.192 17.8083 11.508 20.5445C11.6132 21.2285 11.2449 21.439 11.3501 22.3861C10.7713 24.6488 10.5082 26.5956 10.1399 29.0161C12.9287 28.5425 16.8225 27.5428 19.4534 27.4902C19.506 27.0692 19.6113 27.0692 19.6639 26.8061C19.7165 26.5956 19.5587 26.3326 19.6113 26.1747C19.7691 25.1749 20.1375 23.9647 20.2427 23.1754C20.2427 23.1228 20.1375 23.0176 20.0848 23.1228C20.1375 22.6492 20.1901 21.9652 20.3479 21.5442C20.4532 21.5442 20.4532 21.6495 20.4006 21.7547C20.4532 21.3338 20.5058 21.1759 20.4006 20.9654C20.8741 20.5971 20.4006 19.8078 20.7163 18.9659C21.032 18.9133 20.8215 19.1764 20.9267 19.229C21.0846 19.1238 20.9267 18.9133 20.9267 18.8081C20.9267 18.7555 21.032 18.8081 20.9267 18.8081C20.611 18.9133 20.8741 18.2293 21.032 18.3345C21.1898 18.1766 20.8741 18.0714 20.8741 17.8609C20.9794 17.8083 20.9794 17.5452 21.1898 17.5452C21.0846 17.4926 21.0846 17.3347 20.9794 17.2295C21.5582 16.7559 21.3477 15.8088 21.6634 15.1248C21.4529 14.8617 21.4529 14.5986 21.5056 14.0724C21.6108 14.0724 21.716 14.125 21.7686 14.1776C21.7686 13.6514 21.6634 13.0726 22.1896 12.7043C22.0317 12.4938 22.4527 12.2307 22.0844 12.1781C22.0844 12.0729 22.1896 11.9676 22.2948 11.9676C22.0317 11.3888 22.2422 10.8626 22.4001 10.2838C22.5053 10.1786 22.6105 10.3365 22.7158 10.2312C22.6105 9.86288 22.6105 9.17884 22.9263 8.81051C22.6105 8.28432 23.1894 7.86337 23.0841 7.33718C23.1367 7.17933 23.242 7.02147 23.3472 6.91623C23.1367 6.17957 23.5577 5.81124 23.8734 5.54815C23.8734 4.70625 24.2943 4.33792 24.0839 3.65387C24.6627 2.70673 24.8732 1.65436 25.3467 0.39151C25.5572 0.39151 25.8203 0.181035 26.0308 0.0231784C26.1886 0.0757972 26.1886 0.181034 26.2412 0.33889C26.3991 -0.0820602 27.2936 -0.0820588 27.3462 0.181035C27.5567 0.233654 27.7672 0.181034 27.8198 0.0757967C28.1881 0.601984 28.4512 1.23341 28.2934 1.97007C27.7672 1.65436 27.8198 2.49626 27.3462 2.28578C26.9253 3.81173 26.2939 5.07458 26.0308 6.60052C26.0308 6.75838 25.9255 6.811 25.8729 6.91623C25.6624 7.86337 25.5046 8.86313 25.1362 9.65241C24.8732 11.1257 24.5574 12.9674 24.0839 14.3355C23.5051 18.2293 22.7158 22.544 22.137 26.4904C22.3475 26.7535 22.821 26.4378 22.9263 26.5956ZM25.7677 1.65436C25.7677 1.4965 26.0834 1.18079 25.7677 1.12817C25.8729 1.33865 25.6098 1.54912 25.7677 1.65436ZM24.0839 6.60052C23.8734 6.75838 23.7155 7.12671 23.8734 7.3898C23.6103 7.75813 23.2946 8.65265 23.5051 9.12622C23.4524 9.12622 23.3998 9.12622 23.3472 9.17884C23.242 10.1786 22.821 10.7048 22.8736 11.6519C22.4527 12.336 22.5579 13.5988 22.1896 14.2302C22.1896 15.9667 21.4003 17.5452 21.4529 19.3343C20.9267 20.5445 21.032 21.86 20.611 23.1228C20.6637 23.1228 20.7163 23.1228 20.7163 23.1754C20.3479 24.4909 20.5058 25.3328 20.0848 26.4904C20.2953 26.4904 20.2427 26.7535 20.4006 26.8061C20.7163 26.5956 20.6637 25.859 20.611 25.5433C20.7689 25.5433 20.6637 25.2802 20.8741 25.3328C20.6637 25.0171 21.2425 24.2278 20.8741 23.9647C20.9267 23.8069 20.8741 23.5964 20.9794 23.4911C21.032 23.5438 20.9794 23.649 21.032 23.649C21.1372 23.4385 21.1372 23.2807 20.9794 23.0702C21.4529 22.9123 21.0846 21.86 21.3477 21.9652C21.4003 21.7547 21.2951 21.7021 21.2425 21.5969C21.3477 21.5969 21.4003 21.4916 21.5056 21.4916C21.5582 21.2812 21.3477 21.3338 21.2951 21.2285C21.5582 20.7023 21.4529 20.1235 21.7686 19.65C21.5056 19.2816 21.7686 18.8081 21.9791 18.3345C21.9265 18.3345 21.8213 18.3345 21.8213 18.2819C21.9265 18.0714 22.0317 17.9136 21.8739 17.7031C22.2422 16.9664 22.3475 15.914 22.2948 15.23C22.5053 15.0195 22.5579 14.809 22.4527 14.4933C22.5053 14.3355 22.8736 14.1776 22.7684 14.0724C22.7684 14.125 22.7158 14.1776 22.6105 14.1776C23.0315 12.4938 23.0841 11.2836 23.6629 9.65241C23.5577 9.65241 23.5051 9.65241 23.5051 9.54717C23.8734 9.23146 23.5577 8.65265 23.9786 8.38956C24.0313 8.2317 23.8734 8.2317 23.8734 8.07385C23.926 7.96861 24.0839 7.96861 24.0839 7.86337C24.1365 6.49528 24.8732 5.1272 25.031 3.75911C25.2415 3.1803 25.7677 2.28578 25.6098 1.7596C24.9784 3.39078 24.4522 4.65363 24.0839 6.60052ZM24.2943 4.12744C24.2417 4.07482 24.2943 4.18006 24.2943 4.12744V4.12744ZM24.4522 6.96885C24.4522 6.91623 24.5048 7.02147 24.4522 6.96885V6.96885ZM24.347 7.86337C24.2417 7.86337 24.347 7.91599 24.347 7.86337C24.347 7.75813 24.4522 7.81075 24.347 7.86337ZM24.0839 8.54742C24.0839 8.4948 24.1365 8.60003 24.0839 8.54742V8.54742ZM23.6629 10.2838C23.6103 10.2838 23.6629 10.3365 23.6629 10.2838V10.2838ZM23.5577 10.5469C23.5577 10.5469 23.6103 10.5995 23.5577 10.5469V10.5469ZM22.5579 10.81C22.5053 10.81 22.4527 10.81 22.4527 10.8626C22.5053 10.8626 22.5579 10.8626 22.5579 10.81ZM21.9791 13.2305C21.7686 13.1252 21.8739 13.4936 21.9791 13.441C21.9791 13.2831 22.0844 13.3357 21.9791 13.2305C22.1896 13.1779 21.9265 12.9674 21.9791 13.2305ZM22.8736 13.9145C22.7158 14.125 23.0841 13.7567 22.8736 13.9145V13.9145ZM11.1397 15.1774C11.1397 15.4405 10.9292 15.0721 10.9292 15.3352C10.7187 16.5455 10.6661 17.0717 10.1925 18.124C10.2978 18.1766 10.2451 18.4397 10.403 18.4397C9.77157 19.229 9.87681 20.4919 9.45586 21.4916C9.61371 22.8597 8.77181 23.7542 8.92967 25.1223C8.71919 25.0697 8.87705 25.438 8.66658 25.3854C8.66658 25.3328 8.66658 25.2276 8.61396 25.2276C8.61396 26.543 8.24563 28.3321 8.19301 29.5423C8.35086 29.5423 8.4561 29.4371 8.61396 29.4371C9.03491 27.1745 9.19276 24.5961 9.87681 22.2283C9.82419 20.6497 10.5609 19.3343 10.4556 18.0714C10.5609 18.0188 10.8239 18.1766 10.7713 17.9662C10.5082 17.1243 11.2449 16.2824 11.0344 15.4405C11.2975 15.4405 11.2449 15.1248 11.2449 14.9143H11.087C10.9292 15.0195 11.087 15.0721 11.1397 15.1774ZM22.4001 16.7559C22.3475 16.7033 22.4001 16.8086 22.4001 16.7559V16.7559ZM22.137 17.9662H22.2422V17.8083H22.137V17.9662ZM22.137 18.1766C22.0844 18.1766 22.1896 18.2293 22.137 18.1766V18.1766ZM21.032 18.5976C21.032 18.5976 20.9267 18.5976 20.9267 18.6502C20.9794 18.6502 21.032 18.6502 21.032 18.5976ZM9.03491 22.7019C9.298 22.7019 9.298 22.2283 9.03491 22.2283C9.08753 22.3861 9.19276 22.544 9.03491 22.7019ZM21.4529 23.3859C21.4003 23.3859 21.2951 23.3859 21.2951 23.4385C21.3477 23.4385 21.4529 23.4385 21.4529 23.3859ZM9.92943 24.0173H10.0873V23.8595H9.92943V24.0173ZM21.1898 23.9647C21.2425 23.7016 21.2425 24.1752 21.1898 23.9647V23.9647ZM8.66658 24.7014C8.66658 25.1749 8.82443 24.4909 8.66658 24.7014V24.7014ZM8.61396 25.0697C8.61396 25.0697 8.66658 25.1223 8.61396 25.0697V25.0697ZM9.92943 26.0168C9.77157 26.2273 10.1399 25.859 9.92943 26.0168V26.0168ZM9.19276 26.2799C9.14015 26.2273 9.24538 26.3326 9.19276 26.2799V26.2799ZM20.0848 26.964C20.4532 27.0166 19.9796 27.1745 19.9796 27.2797C20.2427 27.4375 20.2953 27.0692 20.5584 27.2271C20.5584 27.0166 20.5058 27.0692 20.5584 26.8587C20.4006 26.8587 20.1901 26.8587 20.0848 26.964ZM22.821 27.3323C22.821 27.5428 23.1894 27.3323 22.9263 27.2797C22.9263 27.3323 22.8736 27.3323 22.821 27.3323V27.2797C22.5579 27.3849 22.0844 27.2271 21.9791 27.4902C22.3475 27.4902 22.6105 27.4375 22.821 27.3323ZM20.0848 27.7533C20.1375 27.5954 20.1901 27.7533 20.2427 27.8059C20.1901 27.648 20.611 27.5954 20.4006 27.4902C20.4006 27.5428 20.2427 27.5428 20.0848 27.4902C20.0848 27.5428 19.927 27.7006 20.0848 27.7533ZM11.1397 29.0687C10.8766 29.1213 10.1925 29.1213 9.98204 29.4371C10.9818 29.3844 11.9816 28.9109 12.6656 29.0161C12.6656 28.9109 12.6656 28.8056 12.7182 28.8056C12.7708 28.8583 12.7708 28.9635 12.9287 28.9109C13.2444 28.5952 14.1389 28.8056 14.5599 28.4899C14.5599 28.6478 14.6651 28.7004 14.823 28.7004C14.823 28.5425 14.6651 28.5952 14.6651 28.4899C15.2439 28.7004 15.4018 28.2794 15.8227 28.4899C15.8753 28.2268 16.2437 28.1742 16.4015 28.3847C16.4542 28.1216 16.8751 28.1216 17.033 28.2794C17.033 28.1742 17.0856 28.1216 17.1382 28.1216C17.8749 28.0164 18.5589 27.7533 19.4008 27.8585C19.4008 27.7533 19.506 27.7006 19.4534 27.5954C16.5068 27.9637 14.0337 28.5425 11.1923 28.9109C11.1923 28.9635 11.1397 29.0161 11.1397 29.0687ZM9.50848 27.9111C9.45586 27.9111 9.56109 27.9637 9.50848 27.9111V27.9111ZM20.1901 27.9637C19.8744 27.8059 20.0322 28.1742 20.1901 27.9637V27.9637ZM19.1377 28.1216C19.2429 27.8585 19.2429 28.3847 19.1377 28.1216V28.1216ZM17.4539 28.1742C17.5591 28.3847 17.6118 27.9111 17.4539 28.1742V28.1742ZM18.9272 28.1742C18.9799 27.9637 19.2429 28.2268 18.9272 28.1742C18.8746 28.1216 18.5063 28.1216 18.5063 28.2794C18.6641 28.2268 18.822 28.2794 18.9272 28.1742ZM18.138 28.4899C18.0853 28.5425 18.138 28.5425 18.138 28.4899C18.2432 28.4373 18.3484 28.2794 18.4537 28.2268C18.0327 28.2794 17.2434 28.2268 16.9277 28.5425C17.2961 28.5425 17.717 28.2268 17.9801 28.5425C17.9275 28.4373 18.2432 28.2794 18.138 28.4899ZM16.1384 28.3847C16.0858 28.3847 16.0332 28.3847 15.9806 28.4373C16.0332 28.4373 16.1384 28.4373 16.1384 28.3847ZM16.7699 28.4373C16.4542 28.5952 16.9803 28.5952 16.7699 28.4373V28.4373ZM15.5596 28.5425C15.5596 28.5425 15.6123 28.5952 15.5596 28.5425V28.5425ZM15.6123 28.753C15.928 28.6478 16.4542 28.7004 16.5594 28.5425C16.2437 28.4373 15.8227 28.4899 15.6123 28.753ZM14.9808 28.8056C15.1387 28.8583 15.507 28.8582 15.5596 28.5952C15.4018 28.7004 15.0334 28.5952 14.9808 28.8056ZM9.24538 28.9109H9.35062V28.7004H9.24538V28.9109ZM12.7182 29.4371C12.613 29.4897 12.7182 29.4897 12.7182 29.4371C13.0339 29.4897 12.9813 29.174 13.297 29.174C13.297 29.2266 13.2444 29.2266 13.2444 29.3318C13.5075 29.174 13.5075 29.1213 13.9285 29.174C13.9811 29.1213 13.9811 28.9635 14.0863 28.9109C14.1915 29.0161 14.1389 29.0161 14.0863 29.1213C14.2968 28.9635 14.2968 29.0687 14.5599 29.1213C14.5599 28.8583 14.9282 28.9635 14.9282 28.753C14.1389 28.8056 13.3496 29.1213 12.2973 29.2266C12.2973 29.3844 12.3499 29.3844 12.3499 29.4897C12.4551 29.4897 12.8235 29.1213 12.7182 29.4371ZM19.6113 30.9104C19.5587 30.8578 19.5587 30.8051 19.4534 30.8051C19.4008 30.9104 19.4534 31.0156 19.5587 31.0682C19.5587 33.3835 18.9272 36.3827 18.7168 38.5927C19.3482 37.172 19.0325 35.6461 19.5587 34.2254C19.4534 33.3835 19.927 32.3311 19.7691 31.3313C20.0848 30.4894 20.2953 29.5423 20.0848 28.753C19.6639 29.4371 19.8744 30.0685 19.6113 30.9104ZM16.612 28.8583C16.612 28.8583 16.6646 28.9109 16.612 28.8583V28.8583ZM16.7699 28.8583C16.7172 28.8583 16.8225 28.9109 16.7699 28.8583V28.8583ZM15.3492 29.0161C15.3492 28.9635 15.4018 29.0161 15.3492 29.0161V29.0161ZM9.45586 29.1213C9.35062 29.1213 9.40324 29.0161 9.298 29.0161C9.14014 29.0687 9.40324 29.2792 9.45586 29.1213ZM14.823 29.1213C14.7177 29.174 14.823 29.174 14.823 29.1213C14.823 29.0687 14.8756 29.0687 14.823 29.1213ZM13.9285 29.3318C13.8758 29.2792 13.9811 29.3318 13.9285 29.3318V29.3318ZM14.0337 29.3318C14.0337 29.2792 14.0863 29.3318 14.0337 29.3318V29.3318ZM11.1923 29.4897C11.1923 29.6475 11.2975 29.7528 11.4554 29.7528C11.508 29.4371 11.6132 29.7002 11.7711 29.7002C11.7185 29.4897 11.9289 29.5949 11.9816 29.6475C11.9289 29.4897 12.0868 29.4897 12.0342 29.3318C11.6658 29.2792 11.4028 29.7528 11.1923 29.4897ZM12.0868 29.3844C12.0868 29.3318 12.1394 29.4371 12.0868 29.3844V29.3844ZM11.1923 29.4371C11.1923 29.3844 11.2449 29.4897 11.1923 29.4371V29.4371ZM12.2973 29.7002C12.2973 29.5423 12.2447 29.4371 12.0868 29.4371C12.0868 29.5949 12.192 29.6475 12.2973 29.7002ZM10.5082 29.7528C10.1925 29.8054 10.5609 29.4371 10.5082 29.7528C10.5609 29.9106 10.403 29.858 10.403 30.0159C10.3504 30.0159 10.3504 29.9106 10.2978 29.858C10.1399 30.0685 10.1399 29.7002 9.98204 29.858C10.1925 29.9106 9.92943 29.9632 9.98204 30.1211C10.1399 30.0685 10.2978 30.1211 10.403 30.0159C10.8766 30.0685 10.8239 29.5423 11.1397 29.8054C11.2449 29.7002 11.1397 29.5423 11.0344 29.4897C10.9292 29.5949 10.7713 29.6475 10.7187 29.7528C10.6661 29.6475 10.5609 29.7528 10.5082 29.7528ZM9.14014 29.6475C9.19276 29.3844 9.19276 29.858 9.14014 29.6475V29.6475ZM8.19301 29.7528C8.14039 29.9106 8.19301 29.9632 8.29824 30.0159C8.29824 29.8054 8.56134 29.9106 8.56134 29.7002C8.40348 29.7002 8.24563 29.7001 8.19301 29.7528ZM10.1925 29.8054C10.1925 29.8054 10.2451 29.858 10.1925 29.8054V29.8054ZM2.51018 31.6997C3.14161 31.6997 3.93089 31.2261 4.45708 30.963C4.45708 31.0156 4.50969 31.1209 4.56231 31.1209C5.19374 30.6473 6.71968 30.5947 7.45634 30.0159C5.77254 30.3316 4.08874 30.9104 2.51018 31.6997ZM8.35086 30.279C8.24563 30.2263 8.14039 30.3316 8.19301 30.4368C8.29824 30.4368 8.35086 30.3842 8.35086 30.279C8.4561 30.2263 8.35086 30.1737 8.35086 30.279ZM8.03515 30.3842C8.03515 30.8578 8.19301 30.1737 8.03515 30.3842V30.3842ZM5.71993 31.0156C5.50945 30.963 5.50945 31.1735 5.50945 31.3313C5.77254 31.3313 5.77254 31.1735 5.71993 31.0156C5.9304 30.9104 5.77254 31.2261 5.87778 31.2261C6.24611 31.1209 6.50921 30.963 6.82492 30.7525C6.93016 30.8051 6.93016 30.9104 7.03539 30.9104V30.7525C7.19325 30.5947 7.35111 30.8578 7.45634 30.6999V30.4894C6.93016 30.542 6.19349 30.8051 5.71993 31.0156ZM9.03491 30.8051C9.14014 30.5947 9.14014 31.0682 9.03491 30.8051V30.8051ZM8.03515 31.0156C7.45634 34.2254 7.24587 38.277 7.6142 41.0658C7.35111 37.5403 7.92991 35.6461 7.98253 32.6468C8.08777 32.4889 8.40348 32.2259 8.19301 31.9101C8.19301 32.0154 8.19301 32.1206 8.03515 32.068C8.19301 31.7523 8.4561 31.2787 8.24563 30.963C8.24563 31.0156 8.14039 31.0156 8.03515 31.0156ZM8.92967 31.384C8.82443 31.1735 9.24538 30.963 8.92967 30.963C8.92967 31.0682 8.77181 31.3313 8.92967 31.384ZM3.93089 31.5944C3.98351 31.384 4.19398 31.647 3.93089 31.5944C3.82565 31.6997 3.61518 31.647 3.50994 31.7523C3.56256 31.7523 3.61518 31.8049 3.61518 31.8575C3.50994 31.9628 3.24684 31.9101 3.29946 32.1732C3.24684 32.1206 3.24684 32.1732 3.24684 32.2259C3.14161 32.2785 3.24684 32.2785 3.24684 32.2259C3.29946 32.2259 3.29946 32.1732 3.29946 32.1732C3.45732 32.0154 3.35208 32.0154 3.56256 32.068C3.66779 32.0154 3.72041 31.647 3.87827 31.8575C3.82565 31.8575 3.82565 31.9101 3.82565 31.9628C3.72041 32.0154 3.82565 32.0154 3.82565 31.9628C4.19398 31.9628 4.35184 31.6997 4.56231 31.5944C4.93064 31.4892 5.56207 31.5418 5.40421 31.0156C5.35159 31.1209 5.35159 31.2787 5.24636 31.3313C4.93064 30.963 4.61493 31.647 4.2466 31.4366C4.19398 31.5418 4.14136 31.6997 4.08874 31.7523C4.03613 31.6997 3.93089 31.6997 3.93089 31.5944ZM2.29971 31.8575C1.98399 31.7523 2.24709 32.0154 2.29971 31.8575C2.29971 31.7523 2.40494 31.8049 2.29971 31.8575ZM3.19423 31.9628C3.19423 31.9101 3.45732 31.8575 3.24684 31.7523C3.24684 31.8575 2.98375 31.9101 3.19423 31.9628ZM1.45781 32.2785C1.77352 32.1732 2.14185 32.2259 1.98399 31.9101C1.87876 32.068 1.56304 32.068 1.45781 32.2785ZM2.87851 32.068H2.98375V31.9628H2.87851V32.068ZM2.72066 32.4889C2.93113 32.4889 2.87851 32.2785 3.14161 32.3311C3.03637 32.1732 3.29946 32.068 3.14161 32.0154C3.14161 32.3311 2.72066 32.1732 2.72066 32.4889ZM2.08923 32.3311C1.93138 32.3311 2.19447 32.5942 2.08923 32.3311C2.35233 32.3311 2.51018 32.2259 2.61542 32.068C2.40494 32.1732 2.19447 32.1732 2.08923 32.3311ZM2.61542 32.3311C2.61542 32.3311 2.66804 32.3837 2.61542 32.3311V32.3311ZM1.61566 33.0151C2.03661 32.9625 2.24709 32.6994 2.40494 32.3837C2.14185 32.6994 1.82614 32.6468 1.61566 33.0151ZM8.7192 33.2256C8.77181 32.9099 8.87705 32.5416 8.66658 32.3837C8.66658 32.8047 8.4561 33.0151 8.7192 33.2256ZM2.5628 32.5416C2.51018 32.4889 2.61542 32.5942 2.5628 32.5416V32.5416ZM1.40519 32.5942C1.51043 32.3311 1.51043 32.8573 1.40519 32.5942V32.5942ZM1.66828 32.6468C1.77352 32.6468 1.82614 32.5942 1.87876 32.5416C1.77352 32.5416 1.7209 32.5942 1.66828 32.6468ZM2.03661 32.9625C2.14185 32.6994 2.14185 33.2256 2.03661 32.9625V32.9625ZM1.40519 33.0151C1.40519 33.0151 1.45781 33.0678 1.40519 33.0151V33.0151ZM0.721145 33.173C0.773763 32.9099 0.773763 33.4361 0.721145 33.173V33.173ZM0.93162 33.173C0.879001 33.1204 0.93162 33.2256 0.93162 33.173V33.173ZM1.56304 33.2782C1.66828 33.3308 1.82614 33.1204 1.66828 33.1204C1.66828 33.173 1.56304 33.2256 1.56304 33.2782ZM8.56134 33.5413C8.66658 33.5413 8.7192 33.5939 8.7192 33.5939C8.77181 33.3835 8.56134 33.3835 8.56134 33.5413ZM8.50872 36.4354C8.56134 36.3827 8.61396 36.1196 8.40348 36.1196C8.4561 36.2249 8.35086 36.4354 8.50872 36.4354ZM9.14014 36.488C8.82443 36.5406 9.08753 36.8037 9.14014 36.488V36.488ZM8.7192 36.9615C8.82443 36.9615 8.82443 37.0142 8.87705 37.0142C8.87705 36.9089 8.87705 36.8037 8.7192 36.8037V36.9615ZM8.24563 36.9615C8.29824 36.6984 8.29824 37.2246 8.24563 36.9615V36.9615ZM8.50872 37.2246C8.29825 37.2246 8.56134 36.9089 8.35086 36.9615C8.24563 37.0668 8.35086 37.3825 8.50872 37.2246ZM8.19301 37.3825C8.24563 37.1194 8.24563 37.6456 8.19301 37.3825V37.3825ZM8.40348 37.9087C8.40348 37.8034 8.40348 37.6456 8.29824 37.593C8.19301 37.6982 8.24563 37.9087 8.40348 37.9087ZM8.03515 37.7508C8.14039 37.5403 8.14039 38.0139 8.03515 37.7508V37.7508ZM8.29824 38.6453C8.35086 38.698 8.35086 38.7506 8.40348 38.8032C8.29824 38.3296 8.66658 38.1718 8.29824 37.9613C8.35086 38.3296 8.35086 38.1718 8.08777 38.0665C8.14039 38.2244 7.82468 38.3296 8.03515 38.4875C8.08777 38.3822 8.14039 38.3296 8.19301 38.3822C8.19301 38.4875 8.08777 38.7506 8.24563 38.8032C8.24563 38.698 8.24563 38.6453 8.29824 38.6453ZM18.6115 40.1187C18.7168 39.5399 18.822 39.2768 18.822 38.6453H18.6641C18.6641 39.1715 18.401 39.6977 18.6115 40.1187ZM8.03515 39.2768C7.98253 39.0137 8.19301 39.0663 8.19301 38.8558H7.98253C8.03515 38.9611 7.92991 39.2768 8.03515 39.2768ZM8.19301 39.2768C8.14039 39.2768 8.19301 39.3294 8.19301 39.2768V39.2768ZM18.4537 41.0658C18.6115 40.8027 18.6641 40.487 18.4537 40.2239C18.401 40.4344 18.401 40.8553 18.4537 41.0658ZM7.92991 41.0132C7.87729 40.9606 7.98253 41.0132 7.92991 41.0132V41.0132ZM7.92991 41.171C7.87729 41.5394 7.98253 40.9079 7.92991 41.171V41.171ZM7.56158 41.6446C7.71944 41.6972 7.71944 41.1184 7.56158 41.171V41.6446ZM18.3484 41.6446C18.4537 41.4868 18.5063 41.3289 18.3484 41.171C18.2958 41.3815 18.138 41.4341 18.3484 41.6446ZM7.98253 42.1182C8.03515 41.8551 8.03515 42.3813 7.98253 42.1182V42.1182ZM21.2425 16.4402C21.0846 16.6507 21.4529 16.2824 21.2425 16.4402V16.4402ZM20.7163 24.9645C20.7163 24.9118 20.7689 25.0171 20.7163 24.9645V24.9645ZM8.92967 26.0695C8.98229 25.859 8.98229 26.3326 8.92967 26.0695V26.0695ZM23.3472 26.8061C23.3998 26.7535 23.4524 26.8061 23.4524 26.7009C23.3998 26.7535 23.3472 26.7009 23.3472 26.8061ZM23.7155 26.8061C23.6629 26.7535 23.7682 26.8061 23.7155 26.8061V26.8061ZM24.6101 26.8061C24.5574 26.7535 24.6101 26.8061 24.6101 26.8061V26.8061ZM25.0836 26.8587C25.0836 26.8061 25.1362 26.9114 25.0836 26.8587V26.8587ZM19.4008 26.9114C18.9272 26.964 19.7165 26.9114 19.4008 26.9114V26.9114ZM17.8749 27.2271H17.5591C17.7696 27.0166 18.4537 27.0692 18.6115 27.0166C18.5589 27.2797 18.0327 27.0692 17.8749 27.2271ZM19.0325 26.964C18.9799 27.0692 18.822 27.0692 18.6641 27.1218C18.6115 26.8587 18.9272 27.0166 19.0325 26.964ZM18.9799 27.1745C18.9272 27.1218 19.0325 27.2271 18.9799 27.1745V27.1745ZM19.2429 27.1745C19.1903 27.1218 19.2429 27.2271 19.2429 27.1745V27.1745ZM17.033 27.2797C17.033 27.2271 17.1382 27.2271 17.1908 27.2271C17.1908 27.2797 17.0856 27.2797 17.033 27.2797ZM17.8749 27.2271C17.8222 27.4902 18.0853 27.2271 17.8749 27.2271V27.2271ZM18.1906 27.2797C18.1906 27.2797 18.2432 27.3323 18.1906 27.2797V27.2797ZM18.3484 27.2797C18.401 27.0166 18.401 27.5428 18.3484 27.2797V27.2797ZM16.7699 27.3323C16.7699 27.2797 16.8225 27.2797 16.8751 27.2797C16.8751 27.3323 16.8225 27.3323 16.7699 27.3323ZM17.4539 27.3323C17.2961 27.5428 17.6644 27.1745 17.4539 27.3323V27.3323ZM16.4542 27.3323C16.6646 27.4902 16.0858 27.3323 16.1911 27.5954C16.1384 27.5428 16.1384 27.4375 15.9806 27.4902C16.0332 27.2797 16.2437 27.3849 16.4542 27.3323ZM15.6123 27.4375H15.7701C15.7701 27.5428 15.6649 27.5428 15.5596 27.5428C15.5596 27.4902 15.6123 27.4902 15.6123 27.4375ZM15.3492 27.5428C15.3492 27.4902 15.4018 27.5954 15.3492 27.5428V27.5428ZM16.5068 27.5428C16.2963 27.3323 16.2963 27.7533 16.5068 27.5428V27.5428ZM16.8225 27.5428C16.8225 27.4902 16.8751 27.5954 16.8225 27.5428V27.5428ZM15.1913 27.5954C15.1913 27.5428 15.2439 27.5428 15.2965 27.5428C15.2965 27.5954 15.2439 27.5954 15.1913 27.5954ZM14.8756 27.5954C14.8756 27.7533 14.6651 27.7533 14.5073 27.7533C14.5599 27.5954 14.6651 27.5954 14.8756 27.5954ZM15.507 27.648C15.5596 27.4375 15.5596 27.9111 15.507 27.648V27.648ZM15.6649 27.648C15.6649 27.648 15.7175 27.7006 15.6649 27.648V27.648ZM14.402 27.648C14.3494 27.8585 14.0337 27.7533 13.8758 27.8585C13.8758 27.648 14.2442 27.7533 14.402 27.648ZM15.2965 27.7533C15.4018 27.4902 15.4018 27.9637 15.2965 27.7533V27.7533ZM14.9282 27.7533H15.0334V27.8585H14.9282V27.7533ZM14.5073 27.8585C14.5073 27.8059 14.5599 27.8059 14.5073 27.8585V27.8585ZM14.6125 27.8585C14.6125 27.8059 14.7177 27.8059 14.7177 27.8059C14.7177 27.8585 14.6651 27.8585 14.6125 27.8585ZM14.1915 27.9111C14.1389 27.9111 14.1915 27.9637 14.1915 27.9111V27.9111ZM14.5073 27.8585C14.2442 27.8059 14.4546 28.069 14.5073 27.8585V27.8585ZM13.1392 27.9637C13.1392 27.9637 13.1918 28.0164 13.1392 27.9637V27.9637ZM13.6654 27.9637C13.6654 27.9111 13.7706 27.9637 13.6654 27.9637V27.9637ZM13.6654 27.9637C13.4023 27.9111 13.6654 28.1742 13.6654 27.9637V27.9637ZM12.613 28.1216C12.5604 28.069 12.613 28.1742 12.613 28.1216V28.1216ZM12.1394 28.1216C12.1394 28.2268 12.0342 28.2794 11.8763 28.2268C11.9289 28.1216 12.0342 28.069 12.1394 28.1216ZM13.0866 28.1742C13.0866 28.1216 13.1392 28.2268 13.0866 28.1742V28.1742ZM11.7185 28.1742H11.8237V28.2794H11.7185V28.1742ZM12.4025 28.2268C12.2447 28.4373 12.613 28.069 12.4025 28.2268V28.2268ZM11.4028 28.3847C11.3501 28.3321 11.4554 28.3847 11.4028 28.3847V28.3847ZM11.8763 28.3847C11.7711 28.5952 12.1394 28.2268 11.8763 28.3847V28.3847ZM11.0344 28.5952C11.087 28.3847 11.087 28.8582 11.0344 28.5952V28.5952ZM10.5082 28.7004C10.3504 28.9109 10.7187 28.5425 10.5082 28.7004V28.7004ZM10.6135 28.7004C10.6135 28.6478 10.6661 28.7004 10.6135 28.7004V28.7004ZM11.1397 29.0687V29.1213C11.1923 29.1213 11.1923 29.0687 11.1397 29.0687ZM20.0322 29.1213C20.0322 29.0687 20.0848 29.174 20.0322 29.1213V29.1213ZM8.29824 29.3318C8.29824 29.2792 8.35086 29.3318 8.29824 29.3318V29.3318ZM7.24587 29.4371C7.19325 29.3844 7.24587 29.4897 7.24587 29.4371V29.4371ZM7.08801 29.6475C7.19325 29.858 7.24587 29.3844 7.08801 29.6475V29.6475ZM6.61444 29.7528C6.61444 29.7001 6.71968 29.7002 6.7723 29.7002C6.7723 29.7528 6.66706 29.7528 6.61444 29.7528ZM6.40397 29.858C6.40397 29.858 6.45659 29.9106 6.40397 29.858V29.858ZM6.08826 29.9632C6.14088 29.9106 6.19349 29.9632 6.19349 29.858C6.19349 29.9106 6.08826 29.858 6.08826 29.9632ZM5.87778 30.0159C5.87778 29.9632 5.9304 30.0685 5.87778 30.0159V30.0159ZM5.71993 30.0159C5.66731 30.1737 5.50945 30.2263 5.24636 30.1737C5.40421 30.0685 5.45683 30.0685 5.71993 30.0159ZM4.61493 30.279C4.61493 30.1737 4.72017 30.2263 4.61493 30.279V30.279ZM5.0885 30.1737C5.19374 30.2263 5.0885 30.3316 5.0885 30.3842C4.98326 30.3316 5.0885 30.279 5.0885 30.1737ZM4.61493 30.279C4.35184 30.1737 4.61493 30.4368 4.61493 30.279V30.279ZM4.29922 30.3842C4.29922 30.3316 4.40446 30.3316 4.29922 30.3842V30.3842ZM4.82541 30.3316C4.82541 30.3842 4.77279 30.4368 4.61493 30.4368C4.66755 30.3842 4.72017 30.3316 4.82541 30.3316ZM4.19398 30.4368C4.19398 30.3842 4.2466 30.3842 4.29922 30.3842C4.29922 30.4368 4.2466 30.4368 4.19398 30.4368ZM4.19398 30.4368C3.93089 30.3842 4.19398 30.6473 4.19398 30.4368V30.4368ZM4.2466 30.5947C4.29922 30.4894 4.40446 30.4368 4.50969 30.4368C4.50969 30.5421 4.40446 30.5947 4.2466 30.5947ZM19.8744 30.5947C19.927 30.3316 19.927 30.8051 19.8744 30.5947V30.5947ZM3.82565 30.5947C3.72041 30.5947 3.66779 30.6473 3.61518 30.6999C3.72041 30.6999 3.77303 30.6473 3.82565 30.5947ZM3.93089 30.6999C3.87827 30.4368 4.14136 30.6999 3.93089 30.6999V30.6999ZM4.2466 30.5947C4.19398 30.5947 4.2466 30.6473 4.2466 30.5947V30.5947ZM3.50994 30.6999C3.50994 30.8051 3.35208 30.8051 3.35208 30.963C3.24684 30.9104 3.35208 30.6473 3.50994 30.6999ZM3.93089 30.6999C3.66779 30.6473 3.93089 30.9104 3.93089 30.6999V30.6999ZM7.03539 30.7525C6.98278 30.7525 6.98278 30.6999 7.03539 30.6999V30.7525ZM3.56256 30.8051C3.56256 30.7525 3.66779 30.8051 3.56256 30.8051V30.8051ZM2.98375 30.9104C2.82589 31.1209 3.19423 30.7525 2.98375 30.9104V30.9104ZM3.56256 30.8051C3.45732 30.8578 3.56256 30.9104 3.56256 30.8051V30.8051ZM19.6113 30.9104C19.5587 30.963 19.5587 31.0156 19.5587 31.0682C19.6113 31.1209 19.7691 30.9104 19.6113 30.9104ZM6.08826 31.0156C6.08826 30.963 6.19349 30.963 6.19349 30.963C6.19349 31.0156 6.14088 31.0156 6.08826 31.0156ZM2.61542 31.0682C2.61542 31.0156 2.72066 31.0156 2.72066 31.0156C2.72066 31.0682 2.66804 31.0682 2.61542 31.0682ZM2.98375 31.0682C2.98375 31.0156 3.08899 31.0156 3.14161 31.0156C3.14161 31.0682 3.03637 31.0682 2.98375 31.0682ZM2.5628 31.0682C2.51018 31.1735 2.45756 31.2261 2.35233 31.2261C2.40494 31.1209 2.45756 31.0682 2.5628 31.0682ZM2.19447 31.3313C2.14185 31.2787 2.19447 31.384 2.19447 31.3313V31.3313ZM1.98399 31.384C1.98399 31.3313 2.08923 31.3313 1.98399 31.384V31.384ZM1.98399 31.384V31.4366C1.87876 31.647 1.77352 31.3313 1.98399 31.384ZM1.66828 31.5944C1.66828 31.5418 1.7209 31.647 1.66828 31.5944V31.5944ZM1.87876 31.647C1.87876 31.5944 1.93138 31.5944 1.87876 31.647V31.647ZM1.24733 31.9628H1.03686C1.08948 31.8575 1.14209 31.7523 1.29995 31.7523C1.29995 31.8575 1.24733 31.9101 1.24733 31.9628ZM3.87827 31.8575C3.93089 31.8575 3.98351 31.8575 3.98351 31.9101C3.98351 31.9101 3.87827 31.9101 3.87827 31.8575ZM8.29824 38.6453C8.35086 38.5401 8.19301 38.4875 8.29824 38.4875C8.40348 38.4875 8.40348 38.6453 8.29824 38.6453ZM8.50872 40.6975C8.61396 40.6975 8.50872 40.9606 8.56134 41.0658C8.4561 41.0132 8.40348 40.8027 8.50872 40.6975Z" fill="#AA96DA"/>
<path d="M43.0167 13.5185V15.5278C39.4448 15.5278 36.803 18.244 36.803 22.2996V32.4202H34.9798V13.8162H36.803V17.2766C37.5099 15.8627 39.5192 13.5185 43.0167 13.5185ZM53.9187 32.4202H51.6118L44.505 13.8162H46.5887L52.8396 30.3738L59.0534 13.8162H61.0254L53.9187 32.4202ZM62.5137 26.7646H64.3741C64.709 29.4064 66.7554 30.9691 70.2902 30.9691C73.7133 30.9691 75.4993 29.5552 75.4993 27.3227C75.4993 21.6671 63.2207 25.946 63.2207 18.6533C63.2207 15.6022 65.788 13.5185 69.7693 13.5185C73.8994 13.5185 76.5411 15.6766 76.7644 19.0253H74.9412C74.7552 17.0905 73.1924 15.2301 69.7321 15.2301C66.7926 15.2301 65.0811 16.5696 65.0811 18.5788C65.0811 24.0484 77.3225 19.8439 77.3225 27.2483C77.3225 30.411 74.718 32.7179 70.253 32.7179C65.7508 32.7179 62.9602 30.6714 62.5137 26.7646ZM83.5735 13.8162H88.7454V15.4534H83.5735V26.7646C83.5735 29.8901 85.6199 30.6714 87.2943 30.6714H88.7082V32.4202H87.257C84.7269 32.4202 81.7875 31.0063 81.7875 26.7646V15.4534H78.9969V13.8162H81.7875V8.42105H83.5735V13.8162ZM108.875 28.0297C107.163 30.8575 104.447 32.6807 100.28 32.6807C94.6614 32.6807 90.6058 28.5134 90.6058 23.081C90.6058 17.6858 94.6987 13.5185 100.131 13.5185C105.675 13.5185 109.545 17.7603 109.545 22.5229C109.545 23.1182 109.507 23.5275 109.47 23.7508H92.5406C92.8383 28.2901 96.2614 30.8947 100.28 30.8947C103.963 30.8947 106.01 29.4436 107.461 27.0623L108.875 28.0297ZM100.131 15.2673C96.3358 15.2673 92.9871 17.9091 92.5406 22.0764H107.647C107.275 17.8719 103.963 15.2673 100.131 15.2673ZM120 13.5185V15.5278C116.428 15.5278 113.786 18.244 113.786 22.2996V32.4202H111.963V13.8162H113.786V17.2766C114.493 15.8627 116.503 13.5185 120 13.5185Z" fill="#2DB4EA"/>
<path d="M74.7919 42.4292C74.2672 42.4292 73.8462 42.0081 73.8462 41.4834V40.1101C73.8462 39.5077 74.2672 39.1903 74.7919 39.1903H75.66C76.1847 39.1903 76.6057 39.5077 76.6057 40.1101V40.8551C76.6057 40.9652 76.5928 41.0559 76.4373 41.0559H74.6624C74.5587 41.0559 74.4681 41.0105 74.4098 40.9328V41.5093C74.4098 41.7231 74.5782 41.8915 74.7919 41.8915H76.3984C76.4373 41.8915 76.4697 41.9239 76.4697 41.9628V42.4292H74.7919ZM75.6794 39.7215H74.7919C74.5782 39.7215 74.4098 39.8445 74.4098 40.1037V40.4535C74.4098 40.4923 74.4357 40.5182 74.4745 40.5247H75.9838C76.0227 40.5247 76.0551 40.4923 76.0551 40.4535V40.1037C76.0551 39.8445 75.932 39.7215 75.6794 39.7215ZM79.1134 39.1903C79.6381 39.1903 80.0592 39.5077 80.0592 40.0972V42.2219C80.0592 42.3385 79.9685 42.4292 79.8519 42.4292H79.7806H79.4956H78.3361C77.8114 42.4292 77.3903 42.0081 77.3903 41.4834V41.2826C77.3903 40.7579 77.8114 40.3369 78.3361 40.3369H79.4308C79.4697 40.3369 79.5021 40.3045 79.5021 40.2656V40.1037C79.5021 39.8964 79.366 39.7215 79.1134 39.7215H77.8243C77.7855 39.7215 77.7531 39.6891 77.7531 39.6502V39.1903H79.1134ZM77.9539 41.4964C77.9539 41.7101 78.1223 41.8786 78.3361 41.8786H79.4373C79.4762 41.8786 79.5021 41.8462 79.5021 41.8073V40.7773C79.4697 40.8356 79.4049 40.868 79.3336 40.8745H78.3361C78.1223 40.8745 77.9539 41.0429 77.9539 41.2567V41.4964ZM81.0381 40.6931C80.9345 40.6737 80.8567 40.583 80.8567 40.4794V40.0454C80.8567 39.5207 81.2195 39.1903 81.7442 39.1903H83.5191V39.6502C83.5191 39.6891 83.4867 39.7215 83.4478 39.7215H81.7442C81.5304 39.7215 81.4203 39.8251 81.4203 40.0389V40.2267C81.4203 40.2591 81.4462 40.285 81.4786 40.298L83.4802 40.7709C83.5838 40.7903 83.6551 40.881 83.6551 40.9846V41.5611C83.6551 42.1247 83.2535 42.4292 82.7288 42.4292H80.8956V41.9692C80.8956 41.9304 80.928 41.898 80.9668 41.898H82.7288C82.9426 41.898 83.1304 41.7749 83.1304 41.5611V41.2567C83.1304 41.2243 83.1045 41.1984 83.0721 41.1919L81.0381 40.6931ZM86.681 39.1903H87.1733C87.2122 39.1903 87.2446 39.2162 87.2446 39.2551V43.064C87.2446 43.5887 86.817 44.0097 86.2988 44.0097H84.7053V43.5433C84.7053 43.5045 84.7377 43.4721 84.7766 43.4721H86.2988C86.5061 43.4721 86.681 43.2972 86.681 43.0899V42.2219C86.5968 42.3255 86.4413 42.4292 86.2341 42.4292H85.5021C84.9774 42.4292 84.5563 42.0016 84.5563 41.4834V39.1903H85.0486C85.0875 39.1903 85.1199 39.2162 85.1199 39.2551V41.5093C85.1199 41.7166 85.2883 41.8915 85.5021 41.8915H86.3636C86.532 41.8656 86.6681 41.7296 86.681 41.5611V39.1903ZM91.7288 39.1903H92.4802V39.6567C92.4802 39.6956 92.4478 39.7279 92.409 39.7279H91.5992C91.4243 39.7279 91.3013 39.864 91.2883 40.0194V42.4292H90.796C90.7571 42.4292 90.7247 42.3968 90.7247 42.3579V39.1903H91.2171C91.2559 39.1903 91.2883 39.2162 91.2883 39.2551V39.3976C91.366 39.2875 91.528 39.1903 91.7288 39.1903ZM94.081 42.4292C93.5563 42.4292 93.1353 42.0081 93.1353 41.4834V40.1101C93.1353 39.5077 93.5563 39.1903 94.081 39.1903H94.949C95.4737 39.1903 95.8948 39.5077 95.8948 40.1101V40.8551C95.8948 40.9652 95.8818 41.0559 95.7264 41.0559H93.9515C93.8478 41.0559 93.7571 41.0105 93.6988 40.9328V41.5093C93.6988 41.7231 93.8673 41.8915 94.081 41.8915H95.6875C95.7264 41.8915 95.7588 41.9239 95.7588 41.9628V42.4292H94.081ZM94.9685 39.7215H94.081C93.8673 39.7215 93.6988 39.8445 93.6988 40.1037V40.4535C93.6988 40.4923 93.7247 40.5182 93.7636 40.5247H95.2729C95.3118 40.5247 95.3442 40.4923 95.3442 40.4535V40.1037C95.3442 39.8445 95.2211 39.7215 94.9685 39.7215ZM100.216 39.1903H100.709V42.0081C100.709 42.2413 100.521 42.4292 100.288 42.4292H97.7418C97.2171 42.4292 96.796 42.0081 96.796 41.4834V39.1903H97.2883C97.3272 39.1903 97.3596 39.2162 97.3596 39.2551V41.5093C97.3596 41.7231 97.528 41.8915 97.7418 41.8915H98.5839C98.5191 41.8591 98.4737 41.7879 98.4737 41.7101V39.1903H98.966C99.0049 39.1903 99.0373 39.2162 99.0373 39.2551V41.8203C99.0373 41.8591 99.0632 41.8915 99.1021 41.8915H100.08C100.119 41.8915 100.145 41.8591 100.145 41.8203V41.8267V39.2551C100.145 39.2162 100.177 39.1903 100.216 39.1903ZM103.203 39.1903C103.728 39.1903 104.149 39.5077 104.149 40.0972V42.2219C104.149 42.3385 104.058 42.4292 103.942 42.4292H103.871H103.585H102.426C101.901 42.4292 101.48 42.0081 101.48 41.4834V41.2826C101.48 40.7579 101.901 40.3369 102.426 40.3369H103.521C103.56 40.3369 103.592 40.3045 103.592 40.2656V40.1037C103.592 39.8964 103.456 39.7215 103.203 39.7215H101.914C101.875 39.7215 101.843 39.6891 101.843 39.6502V39.1903H103.203ZM102.044 41.4964C102.044 41.7101 102.212 41.8786 102.426 41.8786H103.527C103.566 41.8786 103.592 41.8462 103.592 41.8073V40.7773C103.56 40.8356 103.495 40.868 103.424 40.8745H102.426C102.212 40.8745 102.044 41.0429 102.044 41.2567V41.4964ZM106.041 39.1903H106.793V39.6567C106.793 39.6956 106.76 39.7279 106.722 39.7279H105.912C105.737 39.7279 105.614 39.864 105.601 40.0194V42.4292H105.109C105.07 42.4292 105.037 42.3968 105.037 42.3579V39.1903H105.53C105.568 39.1903 105.601 39.2162 105.601 39.2551V39.3976C105.679 39.2875 105.841 39.1903 106.041 39.1903ZM107.448 40.136C107.448 39.6113 107.856 39.1903 108.381 39.1903H109.132C109.339 39.1903 109.501 39.2875 109.579 39.3976V37.6421C109.579 37.6033 109.611 37.5709 109.65 37.5709H110.143V42.2219C110.143 42.3385 110.052 42.4292 109.935 42.4292H108.394C107.869 42.4292 107.448 42.0081 107.448 41.4834V40.136ZM108.011 40.1101V41.5093C108.011 41.7231 108.18 41.8915 108.394 41.8915H109.508C109.547 41.8915 109.579 41.8656 109.579 41.8267V40.0583C109.566 39.8834 109.43 39.7474 109.268 39.7279H108.394C108.18 39.7279 108.011 39.8964 108.011 40.1101ZM111.134 40.6931C111.031 40.6737 110.953 40.583 110.953 40.4794V40.0454C110.953 39.5207 111.316 39.1903 111.841 39.1903H113.615V39.6502C113.615 39.6891 113.583 39.7215 113.544 39.7215H111.841C111.627 39.7215 111.517 39.8251 111.517 40.0389V40.2267C111.517 40.2591 111.543 40.285 111.575 40.298L113.577 40.7709C113.68 40.7903 113.751 40.881 113.751 40.9846V41.5611C113.751 42.1247 113.35 42.4292 112.825 42.4292H110.992V41.9692C110.992 41.9304 111.024 41.898 111.063 41.898H112.825C113.039 41.898 113.227 41.7749 113.227 41.5611V41.2567C113.227 41.2243 113.201 41.1984 113.168 41.1919L111.134 40.6931Z" fill="#AA96DA"/>
</svg>
